<svg xmlns="http://www.w3.org/2000/svg" viewBox="0 0 512 512" width="100%" height="100%">
  <!-- Top Strap Lugs -->
  <path d="M 180 30 L 332 30 L 310 110 L 202 110 Z" fill="#334155" stroke="#1E293B" stroke-width="8"/>
  <!-- Bottom Strap Lugs -->
  <path d="M 202 402 L 310 402 L 332 482 L 180 482 Z" fill="#334155" stroke="#1E293B" stroke-width="8"/>
  <!-- Watch Outer Case -->
  <circle cx="256" cy="256" r="146" fill="#1E293B" stroke="#38BDF8" stroke-width="12"/>
  <!-- Bezel Ring -->
  <circle cx="256" cy="256" r="130" fill="#0F172A" stroke="#475569" stroke-width="6"/>
  <!-- Screen Display Face -->
  <circle cx="256" cy="256" r="114" fill="#0284C7"/>
  <!-- Digital Clock Text / Display -->
  <text x="256" y="245" font-family="'Segoe UI', Roboto, sans-serif" font-weight="800" font-size="52" fill="#FFFFFF" text-anchor="middle">10:09</text>
  <!-- Heart Rate Pulse Wave -->
  <path d="M 190 280 L 220 280 L 230 260 L 245 300 L 260 270 L 270 280 L 320 280" fill="none" stroke="#EF4444" stroke-width="6" stroke-linecap="round" stroke-linejoin="round"/>
  <!-- Heart Icon -->
  <path d="M 256 315 C 256 315, 240 300, 230 308 C 220 316, 230 330, 256 345 C 282 330, 292 316, 282 308 C 272 300, 256 315, 256 315 Z" fill="#EF4444"/>
  <!-- Crown Button Right -->
  <rect x="402" y="231" width="24" height="50" rx="8" ry="8" fill="#38BDF8"/>
</svg>
