<svg xmlns="http://www.w3.org/2000/svg" viewBox="0 0 512 512" width="100%" height="100%">
  <!-- Server Rack Layer 1 (Top) -->
  <rect x="50" y="60" width="412" height="100" rx="20" ry="20" fill="#1E293B" stroke="#38BDF8" stroke-width="10"/>
  <rect x="75" y="90" width="180" height="40" rx="8" fill="#0F172A"/>
  <circle cx="340" cy="110" r="10" fill="#44D62C"/>
  <circle cx="380" cy="110" r="10" fill="#38BDF8"/>
  <circle cx="420" cy="110" r="10" fill="#FACC15"/>
  <!-- Server Rack Layer 2 (Middle) -->
  <rect x="50" y="206" width="412" height="100" rx="20" ry="20" fill="#1E293B" stroke="#38BDF8" stroke-width="10"/>
  <rect x="75" y="236" width="180" height="40" rx="8" fill="#0F172A"/>
  <circle cx="340" cy="256" r="10" fill="#44D62C"/>
  <circle cx="380" cy="256" r="10" fill="#38BDF8"/>
  <circle cx="420" cy="256" r="10" fill="#44D62C"/>
  <!-- Server Rack Layer 3 (Bottom) -->
  <rect x="50" y="352" width="412" height="100" rx="20" ry="20" fill="#1E293B" stroke="#38BDF8" stroke-width="10"/>
  <rect x="75" y="382" width="180" height="40" rx="8" fill="#0F172A"/>
  <circle cx="340" cy="402" r="10" fill="#44D62C"/>
  <circle cx="380" cy="402" r="10" fill="#EF4444"/>
  <circle cx="420" cy="402" r="10" fill="#38BDF8"/>
</svg>
